<svg xmlns="http://www.w3.org/2000/svg" viewBox="15799 2297 78.013 79.827">
  <defs>
    <style>
      .cls-1 {
        opacity: 0.5;
      }

      .cls-2 {
        fill: #fff;
        stroke: #fff;
        stroke-width: 0.5px;
      }
    </style>
  </defs>
  <g id="groupe-52" transform="translate(15541.715 2093.099)">
    <path id="ellipse-5" class="cls-1" d="M39.006,0C60.549,0,78.012,17.87,78.012,39.913S60.549,79.827,39.006,79.827,0,61.957,0,39.913,17.464,0,39.006,0Z" transform="translate(257.285 203.901)"/>
    <path id="tracé" class="cls-2" d="M45.4,67.817A20.576,20.576,0,0,1,33.941,64.4,21.165,21.165,0,0,1,25.979,54.9,1.184,1.184,0,1,1,28.172,54a18.425,18.425,0,0,0,7.069,8.45,18.907,18.907,0,0,0,14.137,2.681,18.6,18.6,0,0,0,11.862-8.125,18.907,18.907,0,0,0,2.681-14.137A18.4,18.4,0,0,0,55.8,31.011a19.575,19.575,0,0,0-8.45-3.006l.325,6.987a1.184,1.184,0,0,1-.569,1.056.976.976,0,0,1-1.138,0L32.479,28.493a1.127,1.127,0,0,1-.569-.975,1.064,1.064,0,0,1,.487-.975l12.675-8.287a1.146,1.146,0,0,1,1.138-.081,1.2,1.2,0,0,1,.65.975l.244,6.5a21.151,21.151,0,0,1,2.681,41.762A26.71,26.71,0,0,1,45.4,67.817ZM35.241,27.355l9.912,5.525-.244-4.794c0-.081-.081-.244-.081-.325l-.162-6.5Z" transform="translate(249.9 200.34)"/>
  </g>
</svg>
