<svg xmlns="http://www.w3.org/2000/svg" viewBox="-496.384 249.772 20.531 11.5">
  <defs>
    <style>
      .cls-1 {
        fill: #8bc153;
        stroke: #8bc153;
        stroke-width: 0.5px;
      }
    </style>
  </defs>
  <g id="eye_585509" transform="translate(-496.118 250.022)">
    <path id="tracé" class="cls-1" d="M16,26a12.135,12.135,0,0,0-9.914,5.228.462.462,0,0,0,0,.537,12,12,0,0,0,19.828,0,.462.462,0,0,0,0-.537A12.135,12.135,0,0,0,16,26Zm0,.917A11.188,11.188,0,0,1,24.958,31.5a11.054,11.054,0,0,1-17.924,0A11.188,11.188,0,0,1,16,26.917Zm0,1.375A3.208,3.208,0,1,0,19.177,31.5,3.2,3.2,0,0,0,16,28.292Zm0,.917A2.292,2.292,0,1,1,13.723,31.5,2.275,2.275,0,0,1,16,29.208Z" transform="translate(-5.996 -26)"/>
  </g>
</svg>
