<svg xmlns="http://www.w3.org/2000/svg" viewBox="-30.509 123.102 20 20">
  <defs>
    <style>
      .cls-1 {
        fill: #8bc153;
      }

      .cls-2 {
        fill: #fff;
        stroke: #fff;
        stroke-width: 0.5px;
      }
    </style>
  </defs>
  <g id="groupe-17" transform="translate(-30.509 123.102)">
    <circle id="ellipse-3" class="cls-1" cx="10" cy="10" r="10" transform="translate(0 0)"/>
    <g id="eye_585509" transform="translate(3.684 6.842)">
      <path id="tracé" class="cls-2" d="M12.165,26a7.5,7.5,0,0,0-6.116,3.2.28.28,0,0,0,0,.329,7.441,7.441,0,0,0,12.232,0,.28.28,0,0,0,0-.329A7.5,7.5,0,0,0,12.165,26Zm0,.561a6.921,6.921,0,0,1,5.529,2.8,6.853,6.853,0,0,1-11.058,0A6.921,6.921,0,0,1,12.165,26.561Zm0,.841a1.963,1.963,0,1,0,1.963,1.963A1.967,1.967,0,0,0,12.165,27.4Zm0,.561a1.4,1.4,0,1,1-1.4,1.4A1.4,1.4,0,0,1,12.165,27.963Z" transform="translate(-5.996 -26)"/>
    </g>
  </g>
</svg>
